<?xml version="1.0" encoding="UTF-8"?>
<svg version="1.1" xmlns="http://www.w3.org/2000/svg" width="537" height="195">
<path d="M0 0 C1.80541029 2.13176141 3.50537168 4.27417622 5.1875 6.5 C6.18635377 7.78864969 7.18635006 9.07641463 8.1875 10.36328125 C9.79600853 12.44075985 11.40015565 14.52129652 13 16.60546875 C16.29174151 20.66680723 18.88300918 22.91596087 24.0078125 24.234375 C29.13869532 26.20624369 32.13677452 30.24658935 35.1875 34.625 C37.87934443 38.4930159 37.87934443 38.4930159 41 42 C42.35544922 40.59234375 42.35544922 40.59234375 43.73828125 39.15625 C44.92928782 37.93710942 46.12071603 36.71838064 47.3125 35.5 C47.90740234 34.87996094 48.50230469 34.25992188 49.11523438 33.62109375 C49.69208984 33.03457031 50.26894531 32.44804688 50.86328125 31.84375 C51.39219971 31.29912109 51.92111816 30.75449219 52.46606445 30.19335938 C54 29 54 29 57 29 C58.4375 30.546875 58.4375 30.546875 60 32.75 C64.57940888 38.89452331 69.73768014 44.44532904 75 50 C75.76570312 50.80824219 76.53140625 51.61648437 77.3203125 52.44921875 C86.77928399 62.16246367 97.71710374 70.17303018 108.47265625 78.375 C109.10437744 78.85710937 109.73609863 79.33921875 110.38696289 79.8359375 C112.00567016 81.06982107 112.00567016 81.06982107 114 82 C114 82.66 114 83.32 114 84 C109.20925146 82.60086702 105.1116012 80.52527673 100.875 77.9375 C100.22120361 77.54046875 99.56740723 77.1434375 98.89379883 76.734375 C85.92019501 68.73022483 74.78595306 58.83513175 64 48.125 C63.43547119 47.56522461 62.87094238 47.00544922 62.28930664 46.42871094 C59.91812993 44.0477763 57.86988159 41.80482239 56 39 C51.70761377 40.65091778 49.1206085 43.73754566 46 47 C47.3697164 50.99500618 49.25722422 53.80009492 52 57 C51.97679687 56.41992188 51.95359375 55.83984375 51.9296875 55.2421875 C51.81749577 50.38588834 52.12485085 46.57067605 54 42 C56.7241908 44.70894346 59.42587772 47.43476817 62.09375 50.19921875 C74.56434486 63.03266119 88.88421117 74.94210559 105 83 C105 83.66 105 84.32 105 85 C100.4329107 84.19653059 96.27570157 83.30885918 92.1875 81.0625 C87.92787804 78.75306641 83.55025891 77.80418307 78.83203125 76.80859375 C75.83469864 75.95280361 73.59178318 74.71048213 71 73 C73.37277818 78.02470674 76.21097855 79.56030983 81 82 C81 82.66 81 83.32 81 84 C61.00683347 80.89152181 43.436789 57.35652619 32 42 C31.32582031 41.04351562 30.65164063 40.08703125 29.95703125 39.1015625 C26.43696547 34.26782269 23.72774787 31.61421889 18.1875 29.25 C11.11868642 26.16412199 7.63713995 21.14645718 3.27734375 15.046875 C1.16774284 11.8703398 1.16774284 11.8703398 -2 10 C-7.28884855 15.66450508 -12.52990552 21.32088754 -17.375 27.375 C-21.53190484 32.56547283 -26.02123918 37.38267001 -30.65966797 42.14208984 C-31.19350098 42.70105957 -31.72733398 43.2600293 -32.27734375 43.8359375 C-32.75421631 44.32626465 -33.23108887 44.8165918 -33.72241211 45.32177734 C-35.41310026 47.38775057 -35.41310026 47.38775057 -37 52 C-32.545 55.96 -32.545 55.96 -28 60 C-24.00308142 58.00154071 -22.36903062 56.43617575 -19.5 53.125 C-13.2497206 45.95430274 -13.2497206 45.95430274 -11 44 C-3.73506307 44 3.15580345 46.75685632 10 49 C9.20335937 48.12601563 9.20335937 48.12601563 8.390625 47.234375 C-0.15608811 37.31519701 -2.82948858 27.99532115 -2 15 C3.05192522 16.93599855 5.49709874 21.20925418 8.68359375 25.37109375 C11.68994023 28.78301817 14.63223005 30.45289202 18.8125 32.125 C25.42855162 36.01679507 29.74887652 42.59918108 34.25 48.6875 C42.3114883 59.57952809 51.22611162 69.61533726 61 79 C58 80 58 80 55.79858398 79.16723633 C54.95626221 78.72661865 54.11394043 78.28600098 53.24609375 77.83203125 C52.30830078 77.35056641 51.37050781 76.86910156 50.40429688 76.37304688 C49.42525391 75.85806641 48.44621094 75.34308594 47.4375 74.8125 C40.40985699 71.1535579 33.42228097 67.78804948 26 65 C31.57579785 73.29089257 38.69012218 80.08005144 48 84 C43.45168999 86.89736094 39.58033742 85.71793934 34.5 84.81640625 C24.94848494 82.58843008 17.00556163 78.00862303 8.91015625 72.671875 C4.98201095 70.41516871 2.57174045 69.69668167 -1.89453125 70.55859375 C-2.85746094 70.84863281 -3.82039063 71.13867188 -4.8125 71.4375 C-5.78832031 71.72496094 -6.76414062 72.01242188 -7.76953125 72.30859375 C-8.87361328 72.65083984 -8.87361328 72.65083984 -10 73 C-10 73.66 -10 74.32 -10 75 C-9.319375 75.226875 -8.63875 75.45375 -7.9375 75.6875 C-4.3011291 77.31226146 -0.97170737 79.32803257 2 82 C2 82.66 2 83.32 2 84 C-20.11972121 77.33743337 -41.19363306 58.02239929 -57 42 C-57.44988281 42.47308594 -57.89976562 42.94617187 -58.36328125 43.43359375 C-63.88319762 49.10837752 -69.75982781 54.13424548 -76 59 C-76.80969238 59.63228516 -76.80969238 59.63228516 -77.63574219 60.27734375 C-85.30554375 66.21582308 -93.26039936 71.5454305 -101.5625 76.5625 C-102.4073999 77.07530518 -103.2522998 77.58811035 -104.12280273 78.11645508 C-108.32542316 80.61014702 -112.24814539 82.69843853 -117 84 C-113.00643259 79.7724345 -108.65615734 76.34583018 -104 72.875 C-93.6891791 65.08731066 -83.90300875 56.82580878 -74.34765625 48.125 C-71.98757553 45.98875389 -69.58924807 43.90166472 -67.1875 41.8125 C-63.74448425 38.76628571 -60.81403476 35.63101259 -58 32 C-52.70987876 36.40843437 -47.81191572 41.07559794 -43 46 C-38.95587311 42.18993833 -35.29063123 38.20997013 -31.8125 33.875 C-28.36239757 29.58441265 -24.76241439 25.5132024 -21 21.5 C-16.41509567 16.60832072 -12.10840811 11.59297613 -7.9375 6.33984375 C-2.68781302 -0 -2.68781302 -0 0 0 Z " fill="#000000" transform="translate(240,0)"/>
<path d="M0 0 C3.93134783 2.46455428 6.5808447 4.9535424 7.9921875 9.50390625 C9.68459953 16.91110685 11.12318132 24.80750686 7.25 31.6875 C3.93450142 36.2625176 0.5268409 38.76101994 -5.078125 39.72265625 C-10.58277828 40.05192232 -14.50083854 39.08197607 -18.99609375 35.8671875 C-23.33447765 31.87948128 -25.11726109 27.15744886 -25.6875 21.3125 C-26.6775 21.9725 -27.6675 22.6325 -28.6875 23.3125 C-30.66178036 23.54593563 -30.66178036 23.54593563 -32.95359802 23.5219574 C-33.8253898 23.51762979 -34.69718157 23.51330217 -35.59539127 23.50884342 C-37.03015135 23.48597594 -37.03015135 23.48597594 -38.49389648 23.46264648 C-39.50915877 23.4542723 -40.52442106 23.44589811 -41.57044888 23.43727016 C-44.94300179 23.40625083 -48.31514122 23.35996591 -51.6875 23.3125 C-54.00505074 23.2858669 -56.32260664 23.2596791 -58.64016724 23.23391724 C-65.66153935 23.15089403 -72.68256745 23.0481815 -79.70361257 22.94157338 C-83.28436095 22.88752847 -86.8651362 22.83531601 -90.44590759 22.78282166 C-96.48454537 22.69402792 -102.52316235 22.60391833 -108.56176758 22.51293945 C-114.63173626 22.4214978 -120.70172119 22.33127107 -126.77172852 22.24243164 C-147.07719021 21.94514817 -167.3824601 21.63738511 -187.6875 21.3125 C-188.3572092 21.30181834 -189.02691839 21.29113668 -189.71692181 21.28013134 C-197.94989409 21.14873443 -206.18276568 21.01264987 -214.41552544 20.86852837 C-216.67087375 20.8294108 -218.92624078 20.7913538 -221.18162727 20.75450325 C-234.37081646 20.53744058 -247.52011326 20.11115999 -260.6875 19.3125 C-260.6875 18.3225 -260.6875 17.3325 -260.6875 16.3125 C-230.47974907 15.60198973 -200.27284513 15.17940724 -170.05873537 14.87626314 C-166.26835977 14.83803048 -162.47799392 14.79887868 -158.68762815 14.75968587 C-142.01650676 14.58732366 -125.34538029 14.41633834 -108.67407227 14.26293945 C-99.87041099 14.18188917 -91.06684782 14.09395061 -82.26333517 13.99807256 C-77.64401732 13.9480552 -73.02472582 13.9015972 -68.4052906 13.8637867 C-64.10608271 13.82858385 -59.80706293 13.78441734 -55.50801659 13.73322487 C-53.93421865 13.71611354 -52.36038008 13.7023632 -50.78652191 13.69220352 C-48.64250966 13.67787951 -46.49896927 13.6515594 -44.3551178 13.62220764 C-43.15665757 13.61060136 -41.95819735 13.59899508 -40.72342014 13.58703709 C-37.78896493 13.32167543 -36.12199019 12.92435195 -33.6875 11.3125 C-32.20952944 9.27967359 -32.20952944 9.27967359 -30.9375 6.9375 C-24.32752979 -3.19778765 -10.90696403 -5.01352005 0 0 Z M-12.6875 4.3125 C-12.6875 4.6425 -12.6875 4.9725 -12.6875 5.3125 C-10.3775 5.3125 -8.0675 5.3125 -5.6875 5.3125 C-5.6875 4.9825 -5.6875 4.6525 -5.6875 4.3125 C-7.9975 4.3125 -10.3075 4.3125 -12.6875 4.3125 Z M-22.6875 10.3125 C-23.36319865 12.38808233 -23.36319865 12.38808233 -23.6875 14.3125 C-22.53823734 13.35828192 -21.39319459 12.39897955 -20.25 11.4375 C-19.61191406 10.90382812 -18.97382813 10.37015625 -18.31640625 9.8203125 C-16.57944996 8.3902243 -16.57944996 8.3902243 -15.6875 6.3125 C-18.90954284 6.3125 -20.39293569 8.19444063 -22.6875 10.3125 Z M-24.6875 14.3125 C-23.6875 17.3125 -23.6875 17.3125 -23.6875 17.3125 Z " fill="#010202" transform="translate(453.6875,153.6875)"/>
<path d="M0 0 C6.86842619 4.4263191 10.4511022 10.68760495 12.4921875 18.46484375 C14.18022023 26.89202256 12.28591576 33.15194226 9 41 C5 41 5 41 2.046875 38.5078125 C0.93618889 37.39175832 -0.16220044 36.26337283 -1.25 35.125 C-1.82194092 34.54016846 -2.39388184 33.95533691 -2.9831543 33.3527832 C-7.67094052 28.49580577 -11.95789768 23.40982275 -16 18 C-20.91935902 22.11619836 -25.52647956 26.40410362 -30 31 C-33.87761365 29.70746212 -35.27323825 27.31428146 -37.5625 24.125 C-37.96146484 23.58230469 -38.36042969 23.03960937 -38.77148438 22.48046875 C-44.02237723 15.30980037 -44.02237723 15.30980037 -43.82421875 12.56640625 C-41.75844698 6.13412164 -35.74389733 1.17747512 -30 -2 C-20.02512503 -5.8940106 -9.34471685 -5.15386101 0 0 Z " fill="#FCBB3C" transform="translate(312,10)"/>
<path d="M0 0 C2.64 0 5.28 0 8 0 C8 15.18 8 30.36 8 46 C13.94 46 19.88 46 26 46 C28.03131873 40.05058492 29.86228808 34.10090318 31.48046875 28.02734375 C31.69818436 27.21882462 31.91589996 26.41030548 32.14021301 25.57728577 C32.82516098 23.03135931 33.50639599 20.48445719 34.1875 17.9375 C34.65535216 16.19589723 35.12344897 14.45436015 35.59179688 12.71289062 C36.73068975 8.47601349 37.86625723 4.23825802 39 0 C42.63 0 46.26 0 50 0 C51.85443912 7.22578713 53.70577521 14.4523593 55.55419922 21.6796875 C56.18387298 24.13986873 56.81440456 26.59983058 57.44580078 29.05957031 C58.35152471 32.58862335 59.25419309 36.11844562 60.15625 39.6484375 C60.44060913 40.75367767 60.72496826 41.85891785 61.01794434 42.99765015 C61.408349 44.52901108 61.408349 44.52901108 61.80664062 46.09130859 C62.15305603 47.44366104 62.15305603 47.44366104 62.50646973 48.82333374 C63 51 63 51 63 53 C60.36 53 57.72 53 55 53 C54.49242138 51.58603098 53.99425075 50.16868271 53.5 48.75 C53.2215625 47.96109375 52.943125 47.1721875 52.65625 46.359375 C52 44 52 44 52 40 C47.05 40.33 42.1 40.66 37 41 C36.01 44.96 35.02 48.92 34 53 C22.78 53 11.56 53 0 53 C0 35.51 0 18.02 0 0 Z M44 9 C41.73799414 16.98540674 39.58359075 24.68383188 39 33 C42.63 33 46.26 33 50 33 C49.72285156 31.68644531 49.44570312 30.37289062 49.16015625 29.01953125 C48.79425736 27.28385701 48.42837269 25.54817977 48.0625 23.8125 C47.88009766 22.94818359 47.69769531 22.08386719 47.50976562 21.19335938 C46.65404145 17.13255919 45.80092216 13.07205686 45 9 C44.67 9 44.34 9 44 9 Z " fill="#89171A" transform="translate(84,91)"/>
<path d="M0 0 C1.11375 0.9590625 1.11375 0.9590625 2.25 1.9375 C4.71172958 4.83882414 5.7424893 7.50175591 6.38671875 11.25 C6.52722656 12.054375 6.66773438 12.85875 6.8125 13.6875 C6.97685547 14.83798828 6.97685547 14.83798828 7.14453125 16.01171875 C7.83600368 18.21445979 7.83600368 18.21445979 10.18725586 19.06616211 C13.10717827 20.03558345 15.81051795 20.53063011 18.859375 20.9296875 C19.97570312 21.08566406 21.09203125 21.24164063 22.2421875 21.40234375 C24.56435564 21.71524168 26.88727551 22.02261477 29.2109375 22.32421875 C39.20585802 23.73729372 46.98471452 25.55664754 53.51269531 33.68554688 C56.13621357 37.76810647 57.50824404 42.12255483 58.875 46.75 C59.16890625 47.68199219 59.4628125 48.61398438 59.765625 49.57421875 C61.76552287 55.96838764 63.12999987 61.24000686 63 68 C34.64207904 68.20638953 34.64207904 68.20638953 24 67 C24 66.01 24 65.02 24 64 C34.6879768 63.26740918 45.28539694 62.85963402 56 63 C54.78988782 59.78415958 53.55355377 56.57901313 52.3125 53.375 C51.97283203 52.47136719 51.63316406 51.56773437 51.28320312 50.63671875 C47.86806392 41.795044 47.86806392 41.795044 40.75854492 35.82397461 C33.13571594 32.7358094 25.24352292 31.85743425 17.125 30.9375 C14.56385646 30.6448344 12.00386527 30.34185465 9.4453125 30.02734375 C8.32656738 29.90093506 7.20782227 29.77452637 6.05517578 29.64428711 C2.75848461 28.94906832 0.66575869 28.05315902 -2 26 C-2.73249266 23.26496693 -3.19435825 20.90583891 -3.5 18.125 C-4.00542695 13.57615747 -4.41650789 10.75334426 -7.28125 7.0546875 C-11.94864188 3.5273195 -17.17889672 3.78195438 -22.86328125 3.5 C-23.6140947 3.45939453 -24.36490814 3.41878906 -25.13847351 3.37695312 C-27.52964777 3.24787238 -29.92102982 3.12346806 -32.3125 3 C-34.69324032 2.87626241 -37.07389456 2.75138636 -39.45439148 2.62304688 C-40.93130698 2.54347656 -42.40836426 2.46647799 -43.88557434 2.39257812 C-48.62836433 2.13783233 -53.29239893 1.63344271 -58 1 C-58.33 0.01 -58.66 -0.98 -59 -2 C-55.05757852 -3.22364322 -51.02980849 -3.34296813 -46.9375 -3.5703125 C-46.15036621 -3.61566132 -45.36323242 -3.66101013 -44.55224609 -3.70773315 C-42.88471932 -3.80218871 -41.21707073 -3.89451453 -39.54931641 -3.98486328 C-37.03618885 -4.12301069 -34.52405727 -4.27404253 -32.01171875 -4.42578125 C-6.71065274 -5.87182115 -6.71065274 -5.87182115 0 0 Z " fill="#89171A" transform="translate(474,108)"/>
<path d="M0 0 C4.29 0 8.58 0 13 0 C16.3 12.21 19.6 24.42 23 37 C23.33 24.79 23.66 12.58 24 0 C26.31 0 28.62 0 31 0 C31 17.49 31 34.98 31 53 C27.04 53 23.08 53 19 53 C17.89285056 49.25085835 16.7892234 45.5007364 15.6875 41.75 C15.37876953 40.70585937 15.07003906 39.66171875 14.75195312 38.5859375 C14.44580078 37.54179687 14.13964844 36.49765625 13.82421875 35.421875 C13.40789185 34.00793457 13.40789185 34.00793457 12.9831543 32.56542969 C11.55948336 27.40245715 10.29893903 22.19575613 9 17 C8.67 28.88 8.34 40.76 8 53 C5.36 53 2.72 53 0 53 C0 35.51 0 18.02 0 0 Z " fill="#89171A" transform="translate(269,91)"/>
<path d="M0 0 C3.96 0 7.92 0 12 0 C13.10714944 3.74914165 14.2107766 7.4992636 15.3125 11.25 C15.62123047 12.29414062 15.92996094 13.33828125 16.24804688 14.4140625 C16.55419922 15.45820312 16.86035156 16.50234375 17.17578125 17.578125 C17.45333252 18.52075195 17.73088379 19.46337891 18.0168457 20.43457031 C19.44051664 25.59754285 20.70106097 30.80424387 22 36 C22.33 24.12 22.66 12.24 23 0 C25.64 0 28.28 0 31 0 C31 17.49 31 34.98 31 53 C26.71 53 22.42 53 18 53 C14.7 40.46 11.4 27.92 8 15 C7.67 27.54 7.34 40.08 7 53 C4.69 53 2.38 53 0 53 C0 35.51 0 18.02 0 0 Z " fill="#89171A" transform="translate(190,91)"/>
<path d="M0 0 C4.17048026 2.92820955 8.00962817 5.90089792 11.5 9.625 C21.12723277 19.45906785 32.79388464 26.8204576 44.8671875 33.2578125 C48 35 48 35 50 37 C43.24828708 37.25751468 37.05867702 36.26524751 30.4375 35 C17.98856345 32.58899403 17.98856345 32.58899403 5.6875 35 C0.15277778 37 0.15277778 37 -2 37 C-1.33989524 34.15449988 -0.48275034 31.47674001 0.5625 28.75 C0.83191406 28.04359375 1.10132813 27.3371875 1.37890625 26.609375 C1.58386719 26.07828125 1.78882813 25.5471875 2 25 C1.33355469 25.45890625 0.66710937 25.9178125 -0.01953125 26.390625 C-11.07304096 33.74932517 -21.1142689 37.19791989 -34.3125 37.0625 C-35.56643555 37.05573242 -35.56643555 37.05573242 -36.84570312 37.04882812 C-38.89716649 37.03710548 -40.94859273 37.01917203 -43 37 C-40.06783925 34.71728713 -37.1347354 32.97886055 -33.78125 31.35546875 C-31.72684843 29.97032414 -31.72684843 29.97032414 -30.23828125 26.99609375 C-27.34873788 23.12824076 -25.35168957 22.84065131 -20.6875 21.875 C-15.14642963 20.63017505 -10.7661631 19.10354806 -6 16 C-5.34 16 -4.68 16 -4 16 C-3.690625 15.21625 -3.38125 14.4325 -3.0625 13.625 C-2 11 -2 11 -1 9 C-0.77532169 7.46331135 -0.59203195 5.92031946 -0.4375 4.375 C-0.35371094 3.55773438 -0.26992187 2.74046875 -0.18359375 1.8984375 C-0.09271484 0.95871094 -0.09271484 0.95871094 0 0 Z " fill="#000000" transform="translate(185,48)"/>
<path d="M0 0 C0 0.66 0 1.32 0 2 C-1.17054932 2.15033691 -2.34109863 2.30067383 -3.54711914 2.45556641 C-85.30758006 9.3565345 -85.30758006 9.3565345 -152.8515625 49.3046875 C-157.32880633 55.9139522 -157.89694377 62.22308982 -157 70 C-156.09442013 73.29350773 -154.7082419 76.05124909 -153 79 C-152.525625 79.85078125 -152.05125 80.7015625 -151.5625 81.578125 C-145.79119902 91.28944877 -137.97425732 99.08331855 -130 107 C-130.99 107.495 -130.99 107.495 -132 108 C-146.02319263 98.15392858 -157.96624309 87.69382177 -164.4375 71.375 C-166.09508244 61.42950535 -165.04591189 52.74150152 -159.1171875 44.328125 C-153.88325939 38.13745734 -148.05862662 33.90081998 -141 30 C-139.53046875 29.15695313 -139.53046875 29.15695313 -138.03125 28.296875 C-98.62192937 7.06175563 -44.20760097 0 0 0 Z " fill="#89171A" transform="translate(165,41)"/>
<path d="M0 0 C0 0.66 0 1.32 0 2 C-1.04929688 2.20753906 -2.09859375 2.41507813 -3.1796875 2.62890625 C-7.64115831 3.51387517 -12.09983534 4.41251522 -16.55859375 5.31103516 C-19.63682978 5.92729382 -22.71672238 6.53458147 -25.79714966 7.13977051 C-86.44560537 17.44981089 -86.44560537 17.44981089 -137.4375 48.5625 C-141.11035275 54.29215029 -141.17444974 58.56605797 -140 65 C-139.814375 66.155 -139.62875 67.31 -139.4375 68.5 C-139.2209375 69.7375 -139.2209375 69.7375 -139 71 C-139.66 71 -140.32 71 -141 71 C-142.25390625 69.390625 -142.25390625 69.390625 -143.5625 67.25 C-144.21412109 66.20585937 -144.21412109 66.20585937 -144.87890625 65.140625 C-147.769033 59.62219484 -147.530906 54.15901772 -146.0625 48.1875 C-140.60374317 35.08648361 -127.14093078 27.96479707 -114.79174805 22.62646484 C-80.7518809 8.6923811 -36.99626286 0 0 0 Z " fill="#89171A" transform="translate(161,46)"/>
<path d="M0 0 C11.80005465 4.07635711 25.01331236 9.58935088 33.7734375 18.7109375 C34.5078125 20.91796875 34.5078125 20.91796875 34.7734375 22.7109375 C32.91870907 22.00407641 31.06470279 21.29532061 29.2109375 20.5859375 C28.01855469 20.13089844 26.82617188 19.67585938 25.59765625 19.20703125 C23.09803381 18.24151459 20.63710411 17.2295655 18.16796875 16.18359375 C1.34048313 9.09548888 -16.90005873 5.08945512 -35.2265625 5.7109375 C-38.25710271 17.4500745 -40.87518573 29.23697931 -43.3046875 41.11352539 C-43.7461273 43.26530658 -44.1931078 45.41588213 -44.640625 47.56640625 C-45.02661865 49.44815552 -45.02661865 49.44815552 -45.42041016 51.36791992 C-46.13029232 54.31171656 -47.01256228 56.94374079 -48.2265625 59.7109375 C-49.2165625 59.7109375 -50.2065625 59.7109375 -51.2265625 59.7109375 C-51.36339656 52.62537321 -50.97367644 45.70942333 -50.23828125 38.6640625 C-50.13441605 37.64922791 -50.03055084 36.63439331 -49.92353821 35.58880615 C-49.70351905 33.46076983 -49.48067815 31.3330235 -49.25512695 29.20556641 C-48.91366834 25.95718779 -48.59035154 22.70731297 -48.26757812 19.45703125 C-48.05058734 17.38009226 -47.83252549 15.30326482 -47.61328125 13.2265625 C-47.51939621 12.26083313 -47.42551117 11.29510376 -47.32878113 10.30010986 C-46.76824904 5.20284274 -46.05125428 1.12751637 -43.2265625 -3.2890625 C-32.29219048 -8.75624851 -11.17897371 -3.57706332 0 0 Z " fill="#89171A" transform="translate(436.2265625,79.2890625)"/>
<path d="M0 0 C23.6214849 0 23.6214849 0 28.84790039 4.64086914 C30.60398691 8.23677166 30.44767921 11.82726701 30.43359375 15.74609375 C30.4388356 16.59422134 30.44407745 17.44234894 30.44947815 18.31617737 C30.45589255 20.10733955 30.45456886 21.89854388 30.44604492 23.68969727 C30.43753963 26.42475723 30.46629491 29.15772468 30.49804688 31.89257812 C30.4996592 33.63541604 30.49908077 35.37825765 30.49609375 37.12109375 C30.51294472 38.34317787 30.51294472 38.34317787 30.53013611 39.58995056 C30.48360583 43.39691654 30.24963571 45.5583255 28.34399414 48.92993164 C20.51805404 55.84131026 9.76799902 53 0 53 C0 35.51 0 18.02 0 0 Z M8 7 C8 19.87 8 32.74 8 46 C11.96 46 15.92 46 20 46 C22.51704805 43.48295195 22.24669599 41.92327101 22.27789307 38.48840332 C22.2738446 37.73941772 22.26979614 36.99043213 22.265625 36.21875 C22.26753845 35.44946167 22.2694519 34.68017334 22.27142334 33.88757324 C22.27278508 32.2601692 22.26908939 30.6327543 22.26074219 29.00537109 C22.25004221 26.50984369 22.26063751 24.01503618 22.2734375 21.51953125 C22.2721159 19.94010257 22.2695535 18.36067434 22.265625 16.78125 C22.26967346 16.0322644 22.27372192 15.28327881 22.27789307 14.51159668 C22.38187202 10.29688852 22.38187202 10.29688852 20 7 C16.04 7 12.08 7 8 7 Z " fill="#89171A" transform="translate(311,91)"/>
<path d="M0 0 C2.64 0 5.28 0 8 0 C8.33 6.27 8.66 12.54 9 19 C9.85464844 17.71222656 10.70929688 16.42445312 11.58984375 15.09765625 C12.70566863 13.41923059 13.82155734 11.74084736 14.9375 10.0625 C15.50146484 9.21236328 16.06542969 8.36222656 16.64648438 7.48632812 C17.18466797 6.67744141 17.72285156 5.86855469 18.27734375 5.03515625 C18.77484131 4.2862915 19.27233887 3.53742676 19.78491211 2.76586914 C21 1 21 1 22 0 C23.51928038 -0.07179964 25.04167482 -0.08392007 26.5625 -0.0625 C27.38878906 -0.05347656 28.21507812 -0.04445313 29.06640625 -0.03515625 C29.70449219 -0.02355469 30.34257812 -0.01195313 31 0 C28.79335887 4.29130712 26.48793799 8.41331652 23.59375 12.28125 C23.17730225 12.84497314 22.76085449 13.40869629 22.33178711 13.98950195 C21.49572793 15.10794618 20.64258093 16.21384834 19.77172852 17.30541992 C18.39985521 19.06293551 18.39985521 19.06293551 17 22 C18.03852146 26.10855203 19.74350797 29.61760256 21.8203125 33.29296875 C22.35527344 34.25267578 22.89023438 35.21238281 23.44140625 36.20117188 C24.57069967 38.20429211 25.70091935 40.20689042 26.83203125 42.20898438 C27.36441406 43.16482422 27.89679688 44.12066406 28.4453125 45.10546875 C28.93531738 45.97324951 29.42532227 46.84103027 29.93017578 47.73510742 C31 50 31 50 31 53 C25.995523 53.86284086 25.995523 53.86284086 23 53 C20.32978628 50.03379561 18.75103607 46.56326425 17 43 C15.88123163 40.95491195 14.7564089 38.9131221 13.625 36.875 C12.74785484 35.25115691 11.87204804 33.62658606 11 32 C10.01 32.495 10.01 32.495 9 33 C8.67 39.6 8.34 46.2 8 53 C5.36 53 2.72 53 0 53 C0 35.51 0 18.02 0 0 Z " fill="#89171A" transform="translate(152,91)"/>
<path d="M0 0 C3.3 0 6.6 0 10 0 C13.45023143 11.79145026 16.7503991 23.61783935 19.875 35.5 C20.1851001 36.66249268 20.4952002 37.82498535 20.81469727 39.02270508 C21.10014404 40.1186499 21.38559082 41.21459473 21.6796875 42.34375 C21.93476074 43.31505859 22.18983398 44.28636719 22.45263672 45.28710938 C22.98779089 47.93948814 23.10368385 50.30299289 23 53 C20.36 53 17.72 53 15 53 C14.01 49.04 13.02 45.08 12 41 C7.05 40.67 2.1 40.34 -3 40 C-3.144375 41.4025 -3.28875 42.805 -3.4375 44.25 C-3.75286669 47.31356217 -4.24570942 49.98283767 -5 53 C-7.97 53 -10.94 53 -14 53 C-11.48185217 42.050515 -8.79835034 31.15822984 -5.90795898 20.30102539 C-5.29910266 18.01213502 -4.69527481 15.72195428 -4.09179688 13.43164062 C-3.70341653 11.96606855 -3.314756 10.50057068 -2.92578125 9.03515625 C-2.74662674 8.35510025 -2.56747223 7.67504425 -2.38288879 6.97438049 C-1.11511934 2.23023868 -1.11511934 2.23023868 0 0 Z M4 10 C1.525 21.385 1.525 21.385 -1 33 C2.96 33 6.92 33 11 33 C10.21843977 29.35172456 9.42532165 25.70666124 8.625 22.0625 C8.40328125 21.02158203 8.1815625 19.98066406 7.953125 18.90820312 C7.73398437 17.91884766 7.51484375 16.92949219 7.2890625 15.91015625 C7.09006348 14.99371338 6.89106445 14.07727051 6.68603516 13.13305664 C6.45964355 12.42914795 6.23325195 11.72523926 6 11 C5.34 10.67 4.68 10.34 4 10 Z " fill="#89171A" transform="translate(358,91)"/>
<path d="M0 0 C3.3 0 6.6 0 10 0 C12.0683027 6.03258083 13.89357353 12.05914513 15.48046875 18.234375 C15.80704216 19.49595428 15.80704216 19.49595428 16.14021301 20.78302002 C16.5947461 22.54387932 17.04758404 24.305177 17.4987793 26.06689453 C18.18971419 28.75862601 18.89052772 31.44766363 19.59179688 34.13671875 C20.03445715 35.85661575 20.47653507 37.57666277 20.91796875 39.296875 C21.12729538 40.09591248 21.33662201 40.89494995 21.55229187 41.71820068 C22.52743951 45.56394771 23.26639031 48.9956488 23 53 C20.36 53 17.72 53 15 53 C13.72201065 48.28741428 13 44.95734952 13 40 C8.05 40.33 3.1 40.66 -2 41 C-2.99 44.96 -3.98 48.92 -5 53 C-7.64 53 -10.28 53 -13 53 C-12.41521849 46.44474791 -11.23466349 40.35356686 -9.53125 34.00390625 C-9.29088013 33.08915024 -9.05051025 32.17439423 -8.80285645 31.23191833 C-8.29815509 29.31601308 -7.7904244 27.40090347 -7.27978516 25.48657227 C-6.49616831 22.54813178 -5.72192555 19.60734194 -4.94921875 16.66601562 C-4.45626777 14.79933685 -3.96279689 12.93279527 -3.46875 11.06640625 C-3.23643677 10.18626358 -3.00412354 9.30612091 -2.76477051 8.39930725 C-2.54784546 7.58763596 -2.33092041 6.77596466 -2.10742188 5.93969727 C-1.91724487 5.22515884 -1.72706787 4.51062042 -1.53112793 3.77442932 C-1 2 -1 2 0 0 Z M4 10 C1.525 21.385 1.525 21.385 -1 33 C2.96 33 6.92 33 11 33 C9.35 25.41 7.7 17.82 6 10 C5.34 10 4.68 10 4 10 Z " fill="#89171A" transform="translate(240,91)"/>
<path d="M0 0 C3.63 0 7.26 0 11 0 C12.37020726 5.19179793 13.73938455 10.38386607 15.10766602 15.57617188 C15.57191095 17.33731165 16.03642246 19.09838117 16.5012207 20.859375 C18.00860692 26.5708922 19.50917429 32.28413709 21 38 C21.32790527 39.25619141 21.65581055 40.51238281 21.99365234 41.80664062 C22.40478271 43.41055664 22.40478271 43.41055664 22.82421875 45.046875 C23.05584717 45.94760742 23.28747559 46.84833984 23.52612305 47.77636719 C24 50 24 50 24 53 C21.36 53 18.72 53 16 53 C15.01 48.71 14.02 44.42 13 40 C8.05 40 3.1 40 -2 40 C-2.309375 41.959375 -2.61875 43.91875 -2.9375 45.9375 C-3.875 51.875 -3.875 51.875 -5 53 C-7.67058851 53.14115161 -10.32432238 53.04247107 -13 53 C-11.69719753 46.13854304 -10.14964767 39.37719419 -8.3984375 32.6171875 C-8.0364476 31.20676682 -8.0364476 31.20676682 -7.66714478 29.76785278 C-6.9055824 26.80292261 -6.14035794 23.83895239 -5.375 20.875 C-4.85392287 18.84902102 -4.33308731 16.82297989 -3.8125 14.796875 C-2.54445532 9.86386122 -1.2731284 4.93170409 0 0 Z M5 8 C4.16137685 11.60295699 3.33001323 15.20755065 2.5 18.8125 C2.26152344 19.83666016 2.02304687 20.86082031 1.77734375 21.91601562 C1.55175781 22.89892578 1.32617188 23.88183594 1.09375 24.89453125 C0.88427734 25.80050049 0.67480469 26.70646973 0.45898438 27.63989258 C-0.09544978 30.09008413 -0.09544978 30.09008413 0 33 C3.63 33 7.26 33 11 33 C10.37392048 27.20052651 9.32599062 21.66190169 7.9375 16 C7.75123047 15.22527344 7.56496094 14.45054688 7.37304688 13.65234375 C6.91923822 11.76729241 6.46017508 9.8835073 6 8 C5.67 8 5.34 8 5 8 Z " fill="#89171A" transform="translate(54,91)"/>
<path d="M0 0 C2 2 2 2 2.4375 5.4375 C2 9 2 9 -0.1875 11.0625 C-3 12 -3 12 -5.8125 11.1875 C-6.534375 10.795625 -7.25625 10.40375 -8 10 C-9.32850242 3.59903382 -9.32850242 3.59903382 -7.9375 1.0625 C-5.17331023 -0.45334601 -3.09771665 -0.32954432 0 0 Z M-5 2 C-5.66 3.65 -6.32 5.3 -7 7 C-6.34 7.66 -5.68 8.32 -5 9 C-2.39719432 8.67958603 -2.39719432 8.67958603 0 8 C-0.33 6.02 -0.66 4.04 -1 2 C-2.32 2 -3.64 2 -5 2 Z " fill="#040707" transform="translate(292,150)"/>
<path d="M0 0 C4 2 4 2 6 5 C6.33 3.35 6.66 1.7 7 0 C7.66 0 8.32 0 9 0 C9 3.63 9 7.26 9 11 C5 10 5 10 3 7 C2.67 8.32 2.34 9.64 2 11 C1.34 11 0.68 11 0 11 C0 7.37 0 3.74 0 0 Z " fill="#040707" transform="translate(167,150)"/>
<path d="M0 0 C2.31 0 4.62 0 7 0 C7.79953138 3.28696233 8.09658936 4.71023192 7 8 C7.33 8.99 7.66 9.98 8 11 C7.01 11 6.02 11 5 11 C4.34 10.01 3.68 9.02 3 8 C2.67 8.99 2.34 9.98 2 11 C1.34 11 0.68 11 0 11 C0 7.37 0 3.74 0 0 Z M2 2 C2 2.99 2 3.98 2 5 C3.32 4.67 4.64 4.34 6 4 C5.67 3.34 5.34 2.68 5 2 C4.01 2 3.02 2 2 2 Z " fill="#040707" transform="translate(325,150)"/>
<path d="M0 0 C1.99954746 -0.04254356 4.00041636 -0.04080783 6 0 C7 1 7 1 7.09765625 3.28515625 C7.08605469 4.20167969 7.07445313 5.11820313 7.0625 6.0625 C7.05347656 6.98160156 7.04445313 7.90070313 7.03515625 8.84765625 C7.02355469 9.55792969 7.01195313 10.26820313 7 11 C6.01 10.67 5.02 10.34 4 10 C3.67 9.34 3.34 8.68 3 8 C2.67 8.99 2.34 9.98 2 11 C1.34 11 0.68 11 0 11 C0 7.37 0 3.74 0 0 Z M2 2 C2 2.99 2 3.98 2 5 C2.99 5 3.98 5 5 5 C5 4.01 5 3.02 5 2 C4.01 2 3.02 2 2 2 Z " fill="#040707" transform="translate(89,150)"/>
<path d="M0 0 C0.99 0 1.98 0 3 0 C3.50615298 1.26839526 4.00469099 2.53983102 4.5 3.8125 C4.91765625 4.87404297 4.91765625 4.87404297 5.34375 5.95703125 C6 8 6 8 6 11 C5.34 11 4.68 11 4 11 C4 10.34 4 9.68 4 9 C2.35 9 0.7 9 -1 9 C-1 9.66 -1 10.32 -1 11 C-1.66 11 -2.32 11 -3 11 C-2.69078116 9.54096742 -2.37751201 8.08279278 -2.0625 6.625 C-1.88847656 5.81289062 -1.71445313 5.00078125 -1.53515625 4.1640625 C-1 2 -1 2 0 0 Z M1 4 C0.67 4.99 0.34 5.98 0 7 C0.66 7 1.32 7 2 7 C1.67 6.01 1.34 5.02 1 4 Z " fill="#040707" transform="translate(130,150)"/>
<path d="M0 0 C1.65 0 3.3 0 5 0 C5.33 0.99 5.66 1.98 6 3 C4.35 2.67 2.7 2.34 1 2 C1 2.66 1 3.32 1 4 C3.475 4.99 3.475 4.99 6 6 C6 7.65 6 9.3 6 11 C2.98968256 11.93423645 2.13349732 12.04449911 -1 11 C-1 10.01 -1 9.02 -1 8 C1.475 8.495 1.475 8.495 4 9 C4 8.34 4 7.68 4 7 C1.525 6.01 1.525 6.01 -1 5 C-0.67 3.35 -0.34 1.7 0 0 Z " fill="#040707" transform="translate(208,150)"/>
<path d="M0 0 C2.31 0 4.62 0 7 0 C8.125 4.75 8.125 4.75 7 7 C5.35 7 3.7 7 2 7 C2 8.32 2 9.64 2 11 C1.34 11 0.68 11 0 11 C0 7.37 0 3.74 0 0 Z M2 2 C2 2.99 2 3.98 2 5 C3.32 4.67 4.64 4.34 6 4 C5.67 3.34 5.34 2.68 5 2 C4.01 2 3.02 2 2 2 Z " fill="#040707" transform="translate(245,150)"/>
<path d="M0 0 C2.64 0 5.28 0 8 0 C8 0.66 8 1.32 8 2 C7.01 2 6.02 2 5 2 C5 4.97 5 7.94 5 11 C4.34 11 3.68 11 3 11 C3 8.03 3 5.06 3 2 C2.01 2 1.02 2 0 2 C0 1.34 0 0.68 0 0 Z " fill="#040707" transform="translate(363,150)"/>
<path d="M0 0 C2.64 0 5.28 0 8 0 C8 0.66 8 1.32 8 2 C7.01 2 6.02 2 5 2 C5 4.97 5 7.94 5 11 C4.34 11 3.68 11 3 11 C3 8.03 3 5.06 3 2 C2.01 2 1.02 2 0 2 C0 1.34 0 0.68 0 0 Z " fill="#040707" transform="translate(50,150)"/>
</svg>
